<?xml version="1.0" encoding="UTF-8" standalone="no"?><!DOCTYPE svg PUBLIC "-//W3C//DTD SVG 1.1//EN" "http://www.w3.org/Graphics/SVG/1.1/DTD/svg11.dtd"><svg width="100%" height="100%" viewBox="0 0 800 800" version="1.1" xmlns="http://www.w3.org/2000/svg" xmlns:xlink="http://www.w3.org/1999/xlink" xml:space="preserve" xmlns:serif="http://www.serif.com/" style="fill-rule:evenodd;clip-rule:evenodd;stroke-linejoin:round;stroke-miterlimit:2;"><g id="MIDI_icon"><g id="Page-1"><path d="M400,1c220.214,0 399,178.786 399,399c0,220.214 -178.786,399 -399,399c-220.214,0 -399,-178.786 -399,-399c0,-220.214 178.786,-399 399,-399Zm0,67c-183.236,0 -332,148.764 -332,332c0,183.236 148.764,332 332,332c183.236,0 332,-148.764 332,-332c0,-183.236 -148.764,-332 -332,-332Z" style="fill:#8800e7;stroke:#00c9d8;stroke-width:1px;"/></g><circle cx="400" cy="400" r="332" style="fill:#141625;"/><path d="M232,245.239l375.249,-1.255l62.751,133.032l-376.504,0l-61.496,-131.777" style="fill:#315fff;"/><path d="M130,424.239l375.249,-1.255l62.751,133.032l-376.504,0l-61.496,-131.777" style="fill:#9ad4ff;"/><path d="M420.5,148.5l0,503c0,11.314 -9.186,20.5 -20.5,20.5c-11.314,0 -20.5,-9.186 -20.5,-20.5l0,-503c0,-11.314 9.186,-20.5 20.5,-20.5c11.314,0 20.5,9.186 20.5,20.5Z" style="fill:#f00;"/></g></svg>