<?xml version="1.0" encoding="UTF-8" standalone="no"?>
<!DOCTYPE svg PUBLIC "-//W3C//DTD SVG 1.1//EN" "http://www.w3.org/Graphics/SVG/1.1/DTD/svg11.dtd">
<svg width="100%" height="100%" viewBox="0 0 800 800" version="1.1" xmlns="http://www.w3.org/2000/svg" xmlns:xlink="http://www.w3.org/1999/xlink" xml:space="preserve" xmlns:serif="http://www.serif.com/" style="fill-rule:evenodd;clip-rule:evenodd;stroke-linejoin:round;stroke-miterlimit:2;">
    <g id="Notation_icon">
        <circle cx="400" cy="400" r="362" style="fill:rgb(239,247,255);"/>
        <g transform="matrix(1.206667,0,0,2.485477,-82.666667,-443.071636)">
            <rect x="100" y="340" width="600" height="8" style="fill:rgb(69,69,69);"/>
        </g>
        <g transform="matrix(1.206667,0,0,2.485477,-82.666667,-561.54533)">
            <rect x="100" y="340" width="600" height="8" style="fill:rgb(69,69,69);"/>
        </g>
        <g transform="matrix(0.950556,0,0,2.485477,19.777738,-680.019024)">
            <rect x="100" y="340" width="600" height="8" style="fill:rgb(69,69,69);"/>
        </g>
        <g transform="matrix(1.142371,0,0,2.485477,-56.94851,-323.363842)">
            <rect x="100" y="340" width="600" height="8" style="fill:rgb(69,69,69);"/>
        </g>
        <g transform="matrix(0.950556,0,0,2.485477,19.777738,-204.890148)">
            <rect x="100" y="340" width="600" height="8" style="fill:rgb(69,69,69);"/>
        </g>
        <g transform="matrix(2.247283,0,0,2.247283,-518.765111,-426.654794)">
            <ellipse cx="340" cy="400" rx="28" ry="22" style="fill:rgb(0,12,22);"/>
        </g>
        <g transform="matrix(2.247283,0,0,2.247283,-523.259677,-426.654794)">
            <rect x="360" y="260" width="10" height="140" style="fill:rgb(0,12,22);"/>
        </g>
        <g transform="matrix(2.247283,0,0,2.247283,-247.049079,-308.1811)">
            <ellipse cx="340" cy="400" rx="28" ry="22" style="fill:rgb(0,12,22);"/>
        </g>
        <g transform="matrix(2.247283,0,0,2.247283,-251.543644,-308.1811)">
            <rect x="360" y="260" width="10" height="140" style="fill:rgb(0,12,22);"/>
        </g>
        <path d="M400,1C620.214,1 799,179.786 799,400C799,620.214 620.214,799 400,799C179.786,799 1,620.214 1,400C1,179.786 179.786,1 400,1ZM400,68C216.764,68 68,216.764 68,400C68,583.236 216.764,732 400,732C583.236,732 732,583.236 732,400C732,216.764 583.236,68 400,68Z" style="fill:rgb(0,0,0);"/>
    </g>
</svg>
