<?xml version="1.0" encoding="UTF-8" standalone="no"?><!DOCTYPE svg PUBLIC "-//W3C//DTD SVG 1.1//EN" "http://www.w3.org/Graphics/SVG/1.1/DTD/svg11.dtd"><svg width="100%" height="100%" viewBox="0 0 800 800" version="1.1" xmlns="http://www.w3.org/2000/svg" xmlns:xlink="http://www.w3.org/1999/xlink" xml:space="preserve" xmlns:serif="http://www.serif.com/" style="fill-rule:evenodd;clip-rule:evenodd;stroke-linecap:round;stroke-linejoin:round;stroke-miterlimit:1.5;"><g id="MIDI_icon"><g id="Page-1"><path d="M400,1c220.214,0 399,178.786 399,399c0,220.214 -178.786,399 -399,399c-220.214,0 -399,-178.786 -399,-399c0,-220.214 178.786,-399 399,-399Zm0,67c-183.236,0 -332,148.764 -332,332c0,183.236 148.764,332 332,332c183.236,0 332,-148.764 332,-332c0,-183.236 -148.764,-332 -332,-332Z"/></g><circle cx="400" cy="400" r="332" style="fill:#fff;"/><path d="M207,222.927l0,354.146l386,0l0,-295.121l-184.568,0l-58.498,-58.498l-142.934,-0.526Z" style="fill:none;stroke:#000;stroke-width:49px;"/></g></svg>