<?xml version="1.0" encoding="UTF-8" standalone="no"?><!DOCTYPE svg PUBLIC "-//W3C//DTD SVG 1.1//EN" "http://www.w3.org/Graphics/SVG/1.1/DTD/svg11.dtd"><svg width="100%" height="100%" viewBox="0 0 800 800" version="1.1" xmlns="http://www.w3.org/2000/svg" xmlns:xlink="http://www.w3.org/1999/xlink" xml:space="preserve" xmlns:serif="http://www.serif.com/" style="fill-rule:evenodd;clip-rule:evenodd;stroke-linecap:round;stroke-linejoin:round;stroke-miterlimit:1.5;"><g id="MIDI_icon"><g id="Page-1"><circle cx="400" cy="400" r="362" style="fill:#510000;"/></g><circle cx="400" cy="599.5" r="58.5" style="fill:#dc0000;"/><circle cx="566" cy="344" r="50.5" style="fill:#dc0000;"/><rect x="378" y="188" width="44" height="377" style="fill:#dc0000;"/><path d="M400,142l46,92l-92,0l46,-92Z" style="fill:#dc0000;stroke:#dc0000;stroke-width:38px;"/><path d="M400,448l-166,0l0,-82" style="fill:none;stroke:#dc0000;stroke-width:35px;"/><path d="M400,448l166,0l0,-82" style="fill:none;stroke:#dc0000;stroke-width:34px;"/><path d="M272,325l0,38c0,10.486 -8.514,19 -19,19l-38,0c-10.486,0 -19,-8.514 -19,-19l0,-38c0,-10.486 8.514,-19 19,-19l38,0c10.486,0 19,8.514 19,19Z" style="fill:#dc0000;stroke:#dc0000;stroke-width:33px;"/><g id="Page-11" serif:id="Page-1"><path d="M400,1c220.214,0 399,178.786 399,399c0,220.214 -178.786,399 -399,399c-220.214,0 -399,-178.786 -399,-399c0,-220.214 178.786,-399 399,-399Zm0,67c-183.236,0 -332,148.764 -332,332c0,183.236 148.764,332 332,332c183.236,0 332,-148.764 332,-332c0,-183.236 -148.764,-332 -332,-332Z" style="fill:#dc0000;"/></g></g></svg>