<!DOCTYPE svg PUBLIC "-//W3C//DTD SVG 1.1//EN" "http://www.w3.org/Graphics/SVG/1.1/DTD/svg11.dtd">
<!-- Uploaded to: SVG Repo, www.svgrepo.com, Transformed by: SVG Repo Mixer Tools -->
<svg fill="#ffffff" width="800px" height="800px" viewBox="0 0 24 24" version="1.2" baseProfile="tiny" xmlns="http://www.w3.org/2000/svg">
<g id="SVGRepo_bgCarrier" stroke-width="0"/>
<g id="SVGRepo_tracerCarrier" stroke-linecap="round" stroke-linejoin="round"/>
<g id="SVGRepo_iconCarrier">
<path d="M20 6c0-.587-.257-1.167-.75-1.562-.863-.69-2.121-.551-2.812.312l-2.789 3.486-2.449-1.836c-.864-.648-2.087-.493-2.762.351l-4 5c-.294.368-.438.811-.438 1.249v3h16v-10zM20 19h-16c-.552 0-1 .447-1 1s.448 1 1 1h16c.552 0 1-.447 1-1s-.448-1-1-1z"/>
</g>
</svg>