<svg fill="#ffffff" width="800px" height="800px" viewBox="0 0 256 256" xmlns="http://www.w3.org/2000/svg">
<g id="SVGRepo_iconCarrier">
<path d="M168 32c0-9.6-4.2-18.4-12-24.6-5.6-4.4-12.4-6.4-19.2-5.8-6.8.6-12.8 3.6-17.2 8.6l-46 52.8H32c-17.6 0-32 14.4-32 32v66c0 17.6 14.4 32 32 32h41.6l46 52.8c4.4 5 10.4 8 17.2 8.6.8.1 1.6.1 2.4.1 5.8 0 11.4-1.9 16.4-5.9 7.8-6.2 12.4-15 12.4-24.6V32zM32 95h32v66H32V95zm104 129.4l-40-45.8V77.4l40-45.8v192.8z" fill-rule="evenodd"/>
<path d="M224 128l32 32M256 128l-32 32" stroke="#ffffff" stroke-width="24" stroke-linecap="round" fill="none"/>
</g>
</svg>
