<?xml version="1.0" encoding="UTF-8" standalone="no"?><!DOCTYPE svg PUBLIC "-//W3C//DTD SVG 1.1//EN" "http://www.w3.org/Graphics/SVG/1.1/DTD/svg11.dtd"><svg width="100%" height="100%" viewBox="0 0 24 24" version="1.1" xmlns="http://www.w3.org/2000/svg" xmlns:xlink="http://www.w3.org/1999/xlink" xml:space="preserve" xmlns:serif="http://www.serif.com/" style="fill-rule:evenodd;clip-rule:evenodd;stroke-linecap:round;stroke-linejoin:round;stroke-miterlimit:1.5;"><path d="M10,15.5l0,1c0,0.276 -0.224,0.5 -0.5,0.5l-7,0c-0.276,0 -0.5,-0.224 -0.5,-0.5l0,-1c0,-0.276 0.224,-0.5 0.5,-0.5l7,0c0.276,0 0.5,0.224 0.5,0.5Z" style="fill:#fff;"/><path d="M22,15.5l0,1c0,0.276 -0.224,0.5 -0.5,0.5l-7,0c-0.276,0 -0.5,-0.224 -0.5,-0.5l0,-1c0,-0.276 0.224,-0.5 0.5,-0.5l7,0c0.276,0 0.5,0.224 0.5,0.5Z" style="fill:#fff;"/><path d="M10,19.5l0,1c0,0.276 -0.224,0.5 -0.5,0.5l-7,0c-0.276,0 -0.5,-0.224 -0.5,-0.5l0,-1c0,-0.276 0.224,-0.5 0.5,-0.5l7,0c0.276,0 0.5,0.224 0.5,0.5Z" style="fill:#fff;"/><path d="M22,19.5l0,1c0,0.276 -0.224,0.5 -0.5,0.5l-7,0c-0.276,0 -0.5,-0.224 -0.5,-0.5l0,-1c0,-0.276 0.224,-0.5 0.5,-0.5l7,0c0.276,0 0.5,0.224 0.5,0.5Z" style="fill:#fff;"/><path d="M6,13.5l-3,-3l6,-0l-3,3Z" style="fill:#fff;"/><path d="M18,13.5l-3,-3l6,-0l-3,3Z" style="fill:#fff;"/><path d="M6,11l0,-6l12,0l0,6" style="fill:none;stroke:#fff;stroke-width:2px;"/><path d="M12,5l0,-3" style="fill:none;stroke:#fff;stroke-width:2px;"/></svg>