<?xml version="1.0" encoding="UTF-8" standalone="no"?><!DOCTYPE svg PUBLIC "-//W3C//DTD SVG 1.1//EN" "http://www.w3.org/Graphics/SVG/1.1/DTD/svg11.dtd"><svg width="100%" height="100%" viewBox="0 0 800 800" version="1.1" xmlns="http://www.w3.org/2000/svg" xmlns:xlink="http://www.w3.org/1999/xlink" xml:space="preserve" xmlns:serif="http://www.serif.com/" style="fill-rule:evenodd;clip-rule:evenodd;stroke-linejoin:round;stroke-miterlimit:2;"><g id="SVGRepo_iconCarrier"><path d="M76.514,704.316l0,-609.127c0,-17.693 14.351,-32.043 32.043,-32.043c5.645,-0 10.981,1.46 15.586,4.044l-0.168,-0.085l525.439,294.679l0,-281.901c0,-9.295 7.526,-16.85 16.822,-16.85l33.7,0c9.324,0 16.85,7.555 16.85,16.85l-0,640.3c-0,9.296 -7.526,16.822 -16.822,16.822l-33.728,0c-9.296,0 -16.822,-7.526 -16.822,-16.822l0,-281.928l-525.439,294.706c-4.437,2.556 -9.745,4.072 -15.39,4.072c-17.748,-0.196 -32.071,-14.631 -32.071,-32.436l0,-0.309l0,0.028Z" style="fill:#fff;fill-rule:nonzero;"/></g></svg>