<?xml version="1.0" encoding="UTF-8" standalone="no"?><!DOCTYPE svg PUBLIC "-//W3C//DTD SVG 1.1//EN" "http://www.w3.org/Graphics/SVG/1.1/DTD/svg11.dtd"><svg width="100%" height="100%" viewBox="0 0 24 24" version="1.1" xmlns="http://www.w3.org/2000/svg" xmlns:xlink="http://www.w3.org/1999/xlink" xml:space="preserve" xmlns:serif="http://www.serif.com/" style="fill-rule:evenodd;clip-rule:evenodd;stroke-linejoin:round;stroke-miterlimit:2;"><path d="M22,5l0,2c0,0.552 -0.448,1 -1,1l-18,0c-0.552,0 -1,-0.448 -1,-1l0,-2c0,-0.552 0.448,-1 1,-1l18,0c0.552,0 1,0.448 1,1Z" style="fill:#fff;"/><path d="M22,11l0,2c0,0.552 -0.448,1 -1,1l-18,0c-0.552,0 -1,-0.448 -1,-1l0,-2c0,-0.552 0.448,-1 1,-1l18,0c0.552,0 1,0.448 1,1Z" style="fill:#fff;fill-opacity:0.7;"/><path d="M22,17l0,2c0,0.552 -0.448,1 -1,1l-18,0c-0.552,0 -1,-0.448 -1,-1l0,-2c0,-0.552 0.448,-1 1,-1l18,0c0.552,0 1,0.448 1,1Z" style="fill:#fff;fill-opacity:0.4;"/></svg>