<?xml version="1.0" encoding="UTF-8" standalone="no"?><!DOCTYPE svg PUBLIC "-//W3C//DTD SVG 1.1//EN" "http://www.w3.org/Graphics/SVG/1.1/DTD/svg11.dtd"><svg width="100%" height="100%" viewBox="0 0 1875 1642" version="1.1" xmlns="http://www.w3.org/2000/svg" xmlns:xlink="http://www.w3.org/1999/xlink" xml:space="preserve" xmlns:serif="http://www.serif.com/" style="fill-rule:evenodd;clip-rule:evenodd;stroke-linejoin:round;stroke-miterlimit:2;"><g><path d="M1875,538.221l-10.817,-5.2c-3.154,2.2 -7.154,3.371 -11.246,3.592c-0.396,0.021 -0.792,0.029 -1.187,0.029c-3.825,0 -7.771,-0.879 -11.238,-2.667c-3.746,-1.917 -7.3,-5.013 -7.921,-8.862c-0.354,-2.371 0.475,-4.542 1.858,-6.396l-8.338,-4.008l0.929,-1.937l8.892,4.279c0.513,-0.496 1.042,-0.975 1.608,-1.404c3.079,-2.367 7.129,-3.738 11.325,-3.95c0.446,-0.021 0.892,-0.033 1.342,-0.033c3.788,0 7.692,0.783 11.183,2.504c1.937,0.967 3.767,2.204 5.212,3.754c1.038,1.071 1.838,2.35 2.267,3.679l6.129,-12.742l0,5.979l-6.417,13.337l0.004,-0.092l-0.283,0.6c-0.592,1.058 -1.383,1.996 -2.275,2.842l8.971,4.321l0,2.375Zm-38.75,-18.637c-0.408,0.325 -0.792,0.662 -1.112,1.05c-1.088,1.208 -1.617,2.817 -1.333,4.417c0.275,1.612 1.354,3.083 2.792,4.167c1.45,1.071 3.183,1.792 4.95,2.254c2.7,0.683 5.429,0.917 8.125,0.917c0.858,0 1.721,-0.025 2.571,-0.067c2.692,-0.146 5.35,-0.525 7.862,-1.262l-23.854,-11.475Zm15.404,-3.563c-0.696,0 -1.388,0.017 -2.075,0.05c-3.496,0.208 -7.029,0.613 -10.287,1.821l-0.846,0.371l24.475,11.771c2.837,-1.296 5.404,-3.571 5.112,-6.746c-0.925,-3.267 -4.429,-5.312 -7.842,-6.208c-2.8,-0.763 -5.688,-1.058 -8.538,-1.058Z" style="fill:#d4d4d4;fill-rule:nonzero;"/><path d="M1531.946,1027.737l-1.987,-1.4l41.025,-58.263l-0.021,0.083l0.358,-0.513c0.708,-0.887 1.587,-1.633 2.546,-2.275l-10.233,-7.213l1.154,-1.646l11.017,7.754c2.508,-1.192 5.375,-1.742 8.304,-1.742c0.887,0 1.779,0.05 2.671,0.15c3.912,0.458 7.862,1.942 11.104,4.367c3.171,2.35 5.983,5.771 5.962,9.429c-0.038,2.25 -1.142,4.129 -2.708,5.633l7.108,5.008l-1.158,1.646l-7.579,-5.338c-0.554,0.379 -1.117,0.742 -1.7,1.054c-2.558,1.362 -5.583,2.05 -8.683,2.05c-0.804,0 -1.617,-0.046 -2.421,-0.142c-3.921,-0.458 -7.9,-1.833 -11.229,-4.221c-1.642,-1.192 -3.142,-2.621 -4.242,-4.279c-0.8,-1.154 -1.342,-2.463 -1.533,-3.758l-37.754,53.613Zm44.567,-60.5c-2.825,0.754 -5.554,2.467 -5.775,5.45c0.346,3.171 3.283,5.608 6.304,6.962c3.083,1.417 6.383,2.188 9.675,2.575c1.692,0.179 3.404,0.313 5.104,0.313c1.583,0 3.163,-0.113 4.708,-0.412l0.838,-0.217l-20.854,-14.671Zm6.175,-0.717c-1.146,0 -2.283,0.062 -3.408,0.2l20.325,14.304c0.425,-0.233 0.837,-0.488 1.196,-0.8c1.192,-0.946 1.929,-2.354 1.913,-3.883c-0.004,-1.538 -0.775,-3.067 -1.942,-4.292c-1.179,-1.213 -2.667,-2.154 -4.233,-2.854c-3.158,-1.379 -6.492,-2.046 -9.779,-2.437c-1.358,-0.15 -2.721,-0.238 -4.071,-0.238Z" style="fill:#d4d4d4;fill-rule:nonzero;"/><path d="M1126.258,1075.475c-0.258,0 -0.521,-0.004 -0.783,-0.013c-5.275,-0.133 -10.963,-1.7 -13.763,-5.717c-2.733,-4.042 -1.704,-9.15 0.45,-13.392c2.187,-4.346 6.021,-8.1 10.65,-10.621c0.667,-0.362 1.388,-0.658 2.088,-0.979l-28.146,0l0,-2.683l37.017,0c1.417,-0.212 2.854,-0.35 4.304,-0.35c0.079,0 0.158,0 0.238,0.004c1.333,0.012 2.663,0.125 3.962,0.346l8.521,0l0,-83.592l3.262,0l0,83.592l13.675,0l0,2.683l-13.675,0l0,8.887l-0.046,-0.096l0,0.825c-0.15,2.375 -0.938,4.704 -2.108,6.863c-2.354,4.338 -6.337,7.925 -10.946,10.45c-4.4,2.387 -9.554,3.792 -14.7,3.792Zm16.121,-30.192c-1.296,0 -2.596,0.138 -3.842,0.379c-4.45,0.821 -8.65,2.525 -12.538,4.629c-3.854,2.137 -7.621,4.521 -10.646,7.658c-1.458,1.575 -2.696,3.387 -3.204,5.354c-0.571,1.958 -0.292,4.063 0.9,5.717c1.188,1.675 3.213,2.75 5.421,3.183c0.942,0.183 1.912,0.267 2.883,0.267c1.317,0 2.642,-0.15 3.933,-0.404c4.508,-0.917 8.658,-2.75 12.554,-4.854c3.875,-2.133 7.487,-4.679 10.346,-7.825c2.767,-3.063 4.779,-7.329 2.588,-10.967c-2.013,-2.279 -5.171,-3.138 -8.396,-3.138Zm6.904,-0.529c0.563,0.396 1.063,0.829 1.513,1.304l0,-1.304l-1.513,0Z" style="fill:#d4d4d4;fill-rule:nonzero;"/><path d="M374.467,1593.263c-5.212,0 -10.146,-3.117 -12.221,-8.246c-2.721,-6.746 0.537,-14.425 7.288,-17.15c1.617,-0.65 3.283,-0.958 4.925,-0.958c5.217,0 10.158,3.112 12.229,8.246c2.717,6.746 -0.542,14.421 -7.292,17.146c-1.617,0.654 -3.283,0.962 -4.929,0.962Zm76.2,-15.121c-29.138,0 -45.321,-23.083 -50.492,-31.996c-24.958,-43.054 -13.733,-90.712 3.325,-118.825c10.442,-17.204 18.825,-30.533 52.1,-56.633c-49.254,61.983 -56.529,108.392 -34.375,160.721c6.046,14.271 22.775,26.525 41.117,26.525c5.325,0 10.783,-1.029 16.158,-3.346c5.213,-2.25 24.025,-7.45 28.675,-37.083c-2.225,3.446 -5.458,6.279 -9.546,7.933c-2.521,1.017 -5.125,1.496 -7.688,1.496c-8.137,0 -15.846,-4.862 -19.079,-12.871c-4.25,-10.525 0.842,-22.512 11.371,-26.758c2.525,-1.021 5.129,-1.504 7.692,-1.504c8.138,0 15.842,4.867 19.071,12.871c0.65,1.608 1.008,3.254 1.242,4.9l0.487,-0.612c5.683,20.679 -0.704,37.025 -6.621,45.792c-7.483,11.075 -18.308,20.596 -31,25.183c-8.192,2.963 -15.667,4.208 -22.437,4.208Zm-99.433,-42.446c-5.217,0 -10.154,-3.112 -12.225,-8.25c-2.721,-6.746 0.533,-14.421 7.283,-17.146c1.617,-0.654 3.288,-0.963 4.929,-0.963c5.212,0 10.15,3.113 12.221,8.242c2.725,6.754 -0.537,14.433 -7.283,17.158c-1.617,0.65 -3.283,0.958 -4.925,0.958Z" style="fill:#d4d4d4;fill-rule:nonzero;"/><path d="M1726.783,807.942c-16.467,0 -30.408,-6.771 -35.567,-17.775c7.025,5.771 17.963,9.067 30.458,9.067c5.546,0 11.4,-0.65 17.354,-2.021c19.379,-4.458 34.437,-15.312 39.921,-27.246c0.221,15.562 -15.55,31.187 -37.829,36.317c-4.887,1.125 -9.708,1.658 -14.337,1.658Zm8.25,-18.371c-4.404,0 -8.383,-3.029 -9.413,-7.508c-1.2,-5.208 2.046,-10.396 7.254,-11.596c0.729,-0.167 1.458,-0.246 2.175,-0.246c4.404,0 8.388,3.025 9.417,7.5c1.204,5.213 -2.05,10.404 -7.254,11.604c-0.733,0.167 -1.463,0.246 -2.179,0.246Z" style="fill:#d4d4d4;fill-rule:nonzero;"/><path d="M1341.546,475.208c-3.138,0 -6.354,-0.646 -9.25,-1.983c-3.442,-1.583 -6.771,-4.233 -7.479,-7.679c-0.662,-3.454 1.471,-6.533 4.096,-8.729c2.683,-2.25 6.271,-3.65 10.054,-4c0.75,-0.071 1.508,-0.104 2.275,-0.104c3.079,0 6.229,0.579 9.112,1.85c1.788,0.792 3.475,1.833 4.842,3.175c0.979,0.925 1.746,2.046 2.179,3.229l24.842,-57.904l2.158,0.925l-26.996,62.917l-0.004,-0.079l-0.225,0.558c-0.783,1.521 -1.958,2.837 -3.342,3.925c-2.792,2.204 -6.438,3.446 -10.204,3.808c-0.679,0.062 -1.367,0.092 -2.058,0.092Z" style="fill:#d4d4d4;fill-rule:nonzero;"/><path d="M1738.733,729.429l-0.958,-1.267l36.904,-27.896l-0.021,0.05l0.321,-0.254c0.963,-0.629 2.092,-1.008 3.271,-1.188c0.521,-0.079 1.05,-0.117 1.583,-0.117c1.9,0 3.858,0.479 5.679,1.3c2.329,1.054 4.479,2.754 6.008,4.896c1.487,2.079 2.554,4.754 1.821,7.008c-0.767,2.25 -3.05,3.35 -5.329,3.758c-0.625,0.113 -1.267,0.167 -1.917,0.167c-1.775,0 -3.613,-0.412 -5.321,-1.192c-2.337,-1.058 -4.517,-2.696 -6.1,-4.833c-0.787,-1.063 -1.429,-2.238 -1.779,-3.483c-0.267,-0.875 -0.342,-1.783 -0.2,-2.625l-33.963,25.675Z" style="fill:#d4d4d4;fill-rule:nonzero;"/><path d="M1859.842,177.467l-25.008,-91.817l0.075,0.075l-0.229,-0.792c-0.471,-2.329 -0.329,-4.783 0.238,-7.171c1.129,-4.804 4.033,-9.312 7.812,-12.954c3.804,-3.637 8.696,-6.442 13.946,-7.725c1.975,-0.483 4.063,-0.779 6.104,-0.779c3.25,0 6.371,0.75 8.679,2.679c3.704,3.183 4.046,8.388 3.083,13.033c-0.971,4.779 -3.679,9.4 -7.483,13.05c-3.804,3.646 -8.612,6.558 -13.9,7.946c-1.992,0.513 -4.046,0.825 -6.075,0.825c-0.65,0 -1.3,-0.033 -1.946,-0.1c-1.867,-0.158 -3.675,-0.721 -5.167,-1.629l23.008,84.504l-3.137,0.854Zm5.229,-119.108c-0.258,0 -0.517,0.008 -0.775,0.029c-2.258,0.167 -4.496,0.912 -6.542,1.929c-4.117,2.062 -7.642,4.925 -10.837,7.975c-3.175,3.079 -5.996,6.487 -7.933,10.275c-1.867,3.679 -2.679,8.321 0.388,11.254c1.483,0.975 3.217,1.383 5.021,1.383c2.529,0 5.196,-0.8 7.517,-1.942c4.075,-1.954 7.683,-4.708 10.875,-7.754c3.154,-3.075 6.167,-6.358 8.258,-10.183c1,-1.908 1.721,-3.975 1.687,-6.008c0.033,-2.042 -0.787,-3.992 -2.362,-5.279c-1.408,-1.15 -3.321,-1.679 -5.296,-1.679Z" style="fill:#d4d4d4;fill-rule:nonzero;"/><path d="M1266.9,388.771c-0.717,0 -1.425,-0.096 -2.104,-0.308c-3.204,-1.037 -4.808,-4.254 -5.437,-7.462c-0.646,-3.292 -0.154,-6.946 1.292,-10.279c1.45,-3.325 3.733,-6.462 6.725,-8.746c1.487,-1.133 3.146,-2.071 4.9,-2.596c0.858,-0.275 1.75,-0.417 2.617,-0.417c0.35,0 0.696,0.021 1.037,0.071l-0.121,-0.062l-45.904,-58.858l1.792,-1.396l1.429,1.825c1.8,0.521 3.546,0.725 5.258,0.725c3.021,0 5.946,-0.629 8.875,-1.258c2.925,-0.629 5.862,-1.263 8.912,-1.263c5.438,0 11.242,2.004 18.017,9.583c2.713,3.038 24.5,33.771 27.908,39.517c-12.962,-12.067 -21.213,-15.025 -27.171,-15.025c-2.862,0 -5.2,0.683 -7.275,1.367c-2.079,0.683 -3.896,1.363 -5.725,1.363c-0.558,0 -1.121,-0.063 -1.692,-0.213l20.013,25.683c0.383,0.354 0.738,0.733 1.021,1.175c0.917,1.35 1.479,2.95 1.754,4.617c0.558,3.358 -0.092,6.992 -1.521,10.313c-1.45,3.321 -3.817,6.404 -6.808,8.612c-2.3,1.704 -5.121,3.033 -7.792,3.033Zm6.392,-65.446c2.887,0 5.883,0.558 9.108,2.242c-6.304,-4.779 -11.192,-6.237 -15.217,-6.237c-3.167,0 -5.8,0.904 -8.171,1.812c-2.371,0.904 -4.475,1.808 -6.592,1.808c-0.692,0 -1.388,-0.096 -2.092,-0.321l1.929,2.471c1.442,0.317 2.846,0.442 4.221,0.442c2.883,0 5.65,-0.554 8.413,-1.108c2.767,-0.554 5.529,-1.108 8.4,-1.108Zm-32.696,-13.187l2.092,2.687c1.5,0.354 2.967,0.496 4.408,0.496c3.017,0 5.933,-0.625 8.854,-1.246c2.925,-0.625 5.854,-1.25 8.896,-1.25c2.217,0 4.488,0.333 6.863,1.233c-5.658,-3.704 -10.121,-4.863 -13.862,-4.863c-3.129,0 -5.754,0.808 -8.158,1.617c-2.408,0.808 -4.592,1.617 -6.837,1.617c-0.742,0 -1.487,-0.087 -2.254,-0.292Z" style="fill:#d4d4d4;fill-rule:nonzero;"/><path d="M1166.792,553.583c15.462,-51.95 -8.225,-50.521 -10.733,-62.504l-20.492,42.587c-0.217,0.725 -0.479,1.429 -0.871,2.083c-1.167,2.067 -2.883,3.829 -4.875,5.263c-4.004,2.888 -9.146,4.388 -14.388,4.675c-0.496,0.021 -0.996,0.033 -1.496,0.033c-4.8,0 -9.75,-1.1 -14.1,-3.337c-4.696,-2.4 -9.15,-6.288 -9.925,-11.108c-0.721,-4.838 2.433,-8.992 6.2,-11.883c3.863,-2.967 8.938,-4.683 14.204,-4.954c0.554,-0.029 1.112,-0.042 1.671,-0.042c4.754,0 9.654,0.983 14.037,3.146c2.433,1.208 4.721,2.758 6.538,4.7c1.279,1.321 2.254,2.887 2.804,4.525l0,-0.192l46.946,-97.658l2.971,1.433l-1.454,3.038c3.696,20.504 29.746,25.008 16.354,58.417c-2.2,5.492 -28.117,53.638 -33.392,61.779Zm-0.587,-83.583l-1.975,4.108c3.808,15.146 19.208,21.204 18.833,39.5c6.083,-31.967 -15.104,-31.942 -16.858,-43.608Zm9.967,-20.712l-2.142,4.454c3.392,14.592 18.117,21.083 19.708,37.246c3.433,-28.725 -15.154,-29.667 -17.567,-41.7Z" style="fill:#d4d4d4;fill-rule:nonzero;"/><path d="M1665.425,269.879c10.733,-36.058 -5.708,-35.063 -7.45,-43.379l-14.221,29.554c-0.15,0.504 -0.329,0.992 -0.604,1.446c-0.808,1.433 -2,2.658 -3.383,3.65c-2.779,2.008 -6.346,3.05 -9.988,3.246c-0.342,0.017 -0.688,0.025 -1.033,0.025c-3.329,0 -6.767,-0.762 -9.787,-2.317c-3.258,-1.667 -6.35,-4.367 -6.887,-7.708c-0.5,-3.358 1.687,-6.242 4.304,-8.246c2.679,-2.062 6.2,-3.254 9.854,-3.442c0.383,-0.017 0.771,-0.029 1.158,-0.029c3.3,0 6.704,0.683 9.746,2.183c1.687,0.837 3.275,1.917 4.538,3.262c0.887,0.917 1.562,2.004 1.946,3.142l0,-0.133l32.579,-67.775l2.063,0.996l-1.008,2.104c2.562,14.229 20.642,17.358 11.35,40.542c-1.529,3.812 -19.513,37.229 -23.175,42.879Zm-0.412,-58.008l-1.367,2.85c2.642,10.513 13.333,14.713 13.075,27.413c4.217,-22.183 -10.487,-22.167 -11.708,-30.263Zm6.921,-14.375l-1.487,3.092c2.358,10.125 12.579,14.629 13.679,25.846c2.387,-19.933 -10.517,-20.587 -12.192,-28.938Z" style="fill:#d4d4d4;fill-rule:nonzero;"/><path d="M840.854,1182.029c-4.512,0 -8.021,-3.367 -10.308,-7.171c-2.425,-3.992 -3.537,-9.008 -3.237,-14.058c0.296,-5.037 1.788,-10.229 4.608,-14.646c1.408,-2.192 3.121,-4.213 5.162,-5.738c1.417,-1.104 3.05,-1.879 4.7,-2.212l-71.254,-44.471l1.658,-2.654l2.588,1.617c22.492,-1.45 23.3,-15.454 35.262,-15.454c6.642,0 16.721,4.317 35.846,17.483c-9.542,-5.271 -16.771,-7.208 -22.521,-7.208c-7.996,0 -13.137,3.746 -17.667,7.492c-4.529,3.742 -8.446,7.487 -14,7.487c-0.433,0 -0.875,-0.025 -1.329,-0.071l59.238,36.975l-0.108,-0.012l0.687,0.408c1.854,1.337 3.346,3.158 4.508,5.2c2.329,4.125 3.221,9.183 2.938,14.217c-0.304,5.029 -1.917,10.196 -4.783,14.513c-2.783,4.225 -6.95,8.058 -11.637,8.296c-0.117,0.004 -0.233,0.008 -0.35,0.008Z" style="fill:#d4d4d4;fill-rule:nonzero;"/><path d="M616.387,1413.738c-0.325,0 -0.65,-0.004 -0.975,-0.017c-4.325,-0.179 -8.783,-1.475 -12.546,-3.85c-3.671,-2.321 -7.042,-5.821 -7.325,-9.838c-0.237,-4.017 2.646,-7.192 5.954,-9.292c3.154,-2 7.096,-3.042 11.125,-3.042c0.292,0 0.587,0.004 0.879,0.017c4.338,0.179 8.821,1.354 12.654,3.692c1.912,1.179 3.675,2.612 5.025,4.333c0.908,1.133 1.575,2.433 1.921,3.75l45.546,-76.508l2.529,1.363l-2.342,3.942c1.417,15.7 16.996,20.642 14,35.312l-24.938,41.892c10.35,-25.733 -9.667,-32.4 -7.187,-46.792l-28.221,47.358l0,-0.029l-0.542,0.95c-1.113,1.604 -2.65,2.925 -4.388,3.958c-3.233,1.917 -7.175,2.8 -11.171,2.8Zm54.833,-72.683l-3.638,6.117c1.292,11.563 12.129,17.063 13.688,28.592c4.942,-22.754 -10.679,-24.662 -10.05,-34.708Z" style="fill:#d4d4d4;fill-rule:nonzero;"/><path d="M1598.25,900.437c-2.421,0 -4.871,-0.408 -7.158,-1.258c-3.321,-1.237 -6.6,-3.471 -7.5,-6.633c-0.863,-3.171 0.912,-6.192 3.208,-8.425c2.338,-2.279 5.596,-3.833 9.083,-4.429c1.242,-0.208 2.525,-0.317 3.813,-0.317c2.329,0 4.688,0.358 6.917,1.146c1.725,0.621 3.371,1.471 4.742,2.621c0.912,0.754 1.662,1.675 2.158,2.675l23.567,-68.771l2.254,0.667l-1.213,3.546c3.771,12.304 17.042,13.65 17.113,25.867l-12.908,37.658c3.958,-22.304 -13.154,-24.271 -13.592,-36.188l-14.604,42.571l-0.004,-0.021l-0.279,0.846c-0.621,1.475 -1.625,2.783 -2.837,3.9c-2.45,2.246 -5.758,3.658 -9.238,4.254c-1.15,0.192 -2.329,0.292 -3.521,0.292Zm35.929,-67.708l-1.879,5.504c2.971,9.017 12.55,11.6 15.725,20.546c0.142,-19.004 -12.663,-17.917 -13.846,-26.05Z" style="fill:#d4d4d4;fill-rule:nonzero;"/><path d="M804.875,406.804l-6.925,-13.662l0.029,-0.017l-23.85,-47.096c-0.496,-0.583 -0.917,-1.242 -1.179,-1.975c-0.617,-1.575 -0.825,-3.325 -0.729,-5.075c0.2,-3.537 1.679,-7.075 3.883,-10.117c2.233,-3.042 5.325,-5.633 8.867,-7.192c2.037,-0.9 4.325,-1.525 6.483,-1.525c1.496,0 2.925,0.3 4.171,1.017c3.017,1.775 3.904,5.404 3.813,8.804c-0.088,3.483 -1.421,7.079 -3.642,10.133c-2.229,3.046 -5.254,5.704 -8.804,7.342c-1.775,0.808 -3.663,1.383 -5.563,1.521c-0.263,0.021 -0.525,0.033 -0.787,0.033c-0.979,0 -1.942,-0.163 -2.821,-0.462l0.317,0.25l21.946,43.271l61.65,-31.25l-24.4,-48.183c-0.496,-0.587 -0.908,-1.242 -1.179,-1.979c-0.625,-1.575 -0.833,-3.325 -0.729,-5.079c0.196,-3.529 1.679,-7.067 3.883,-10.113c2.233,-3.042 5.325,-5.629 8.862,-7.192c2.042,-0.9 4.329,-1.525 6.483,-1.525c1.496,0 2.929,0.3 4.175,1.017c3.017,1.779 3.908,5.4 3.808,8.8c-0.088,3.483 -1.417,7.087 -3.638,10.138c-2.225,3.042 -5.254,5.704 -8.804,7.342c-1.775,0.808 -3.667,1.383 -5.562,1.517c-0.263,0.025 -0.529,0.038 -0.792,0.038c-0.979,0 -1.942,-0.158 -2.813,-0.462l0.312,0.25l22.5,44.363l0.004,-0.004l6.925,13.667l-65.896,33.408Z" style="fill:#d4d4d4;fill-rule:nonzero;"/><path d="M641,1270.5c-1.546,0 -3.092,-0.146 -4.608,-0.454c-4.05,-0.821 -8.242,-2.796 -9.854,-6.283c-1.571,-3.492 -0.075,-7.3 2.158,-10.288c2.283,-3.054 5.754,-5.442 9.667,-6.763c2.621,-0.883 5.454,-1.383 8.304,-1.383c1.413,0 2.825,0.125 4.217,0.383c2.096,0.396 4.154,1.075 5.937,2.154c1.183,0.692 2.204,1.608 2.958,2.658l-0.129,-0.421l10.133,-68.942l0.967,0.1l81.829,-8.375l-2.346,15.925l-0.146,0.017l-1.387,9.442l0.496,-0.046l-0.513,3.475l-0.504,0.054l-6.954,47.125c0.083,0.842 0.038,1.696 -0.187,2.521c-0.446,1.808 -1.362,3.508 -2.563,5.008c-2.412,3.042 -5.967,5.267 -9.871,6.604c-2.488,0.825 -5.171,1.275 -7.867,1.275c-1.546,0 -3.096,-0.146 -4.608,-0.458c-4.058,-0.812 -8.246,-2.796 -9.863,-6.283c-1.567,-3.492 -0.079,-7.296 2.158,-10.275c2.287,-3.075 5.75,-5.446 9.667,-6.771c2.625,-0.883 5.458,-1.383 8.313,-1.383c1.408,0 2.817,0.121 4.208,0.375c2.104,0.404 4.15,1.083 5.933,2.163c1.188,0.692 2.208,1.613 2.958,2.662l-0.125,-0.429l6.15,-41.862l-77.375,7.917l-6.658,45.154c0.079,0.842 0.042,1.7 -0.196,2.517c-0.433,1.817 -1.358,3.5 -2.55,5.008c-2.413,3.038 -5.975,5.267 -9.879,6.592c-2.483,0.837 -5.171,1.287 -7.871,1.287Zm106.429,-81.4l-77.363,7.917l-1.35,9.175l77.329,-7.658l1.383,-9.433Z" style="fill:#d4d4d4;fill-rule:nonzero;"/><path d="M1485.729,403.171c-0.196,0 -0.388,-0.004 -0.579,-0.012c-2.017,-0.108 -4.175,-0.767 -5.208,-2.333c-1.004,-1.575 -0.55,-3.517 0.317,-5.108c0.888,-1.642 2.387,-3.037 4.183,-3.954c1.679,-0.85 3.617,-1.375 5.567,-1.375c0.133,0 0.267,0 0.4,0.004c1.037,0.046 2.079,0.229 3.017,0.621c0.617,0.246 1.175,0.621 1.617,1.075l-0.096,-0.196l-0.004,-33.971l0.475,-0.021l38.867,-9.837l0,7.846l-0.067,0.017l-0.017,29.588c0.096,0.404 0.137,0.821 0.083,1.229c-0.083,0.904 -0.4,1.788 -0.871,2.6c-0.95,1.638 -2.508,2.963 -4.296,3.883c-1.629,0.821 -3.504,1.296 -5.379,1.296c-0.196,0 -0.387,-0.004 -0.579,-0.012c-2.013,-0.108 -4.175,-0.767 -5.2,-2.333c-1.008,-1.575 -0.554,-3.517 0.308,-5.113c0.887,-1.637 2.387,-3.033 4.183,-3.95c1.683,-0.85 3.613,-1.379 5.571,-1.379c0.133,0 0.267,0.004 0.4,0.008c1.033,0.046 2.075,0.225 3.012,0.625c0.617,0.246 1.179,0.621 1.617,1.067l-0.092,-0.196l-0.004,-26.992l-36.75,9.3l-0.012,28.625c0.096,0.396 0.137,0.812 0.083,1.225c-0.079,0.9 -0.404,1.783 -0.875,2.596c-0.946,1.638 -2.508,2.962 -4.296,3.883c-1.625,0.825 -3.504,1.296 -5.375,1.296Z" style="fill:#d4d4d4;fill-rule:nonzero;"/><path d="M685.946,425l-1.933,0l0,-19.137l1.933,-0.5l0,19.638Zm-1.933,-21.804l0,-20.825l1.933,-0.5l0,20.825l-1.933,0.5Zm0,-23.487l0,-22.862l1.933,0l0,22.358l-1.933,0.504Z" style="fill:#d4d4d4;fill-rule:nonzero;"/><path d="M708.196,422.471l-1.937,0l0,-22.363l1.937,-0.5l0,22.862Zm-1.937,-25.025l0,-20.825l1.937,-0.5l0,20.825l-1.937,0.5Zm0,-23.492l0,-19.633l1.937,0l0,19.129l-1.937,0.504Z" style="fill:#d4d4d4;fill-rule:nonzero;"/><path d="M676.925,384.2l-0.642,-2.496l7.729,-1.996l1.933,-0.504l20.312,-5.25l1.937,-0.504l7.083,-1.829l0.65,2.5l-7.733,2l-1.937,0.5l-20.312,5.25l-1.933,0.5l-7.087,1.829Z" style="fill:#d4d4d4;fill-rule:nonzero;"/><path d="M676.925,407.696l-0.642,-2.504l7.729,-1.996l1.933,-0.5l20.312,-5.25l1.937,-0.5l7.083,-1.833l0.65,2.496l-7.733,2l-1.937,0.5l-20.312,5.254l-1.933,0.5l-7.087,1.833Z" style="fill:#d4d4d4;fill-rule:nonzero;"/><path d="M1264.833,1176.317l-1.937,0l0,-19.138l1.937,-0.504l0,19.642Zm-1.937,-21.808l0,-20.821l1.937,-0.5l0,20.821l-1.937,0.5Zm0,-23.488l0,-22.858l1.937,0l0,22.358l-1.937,0.5Z" style="fill:#d4d4d4;fill-rule:nonzero;"/><path d="M1287.079,1173.787l-1.933,0l0,-22.362l1.933,-0.5l0,22.862Zm-1.933,-25.029l0,-20.821l1.933,-0.5l0,20.821l-1.933,0.5Zm0,-23.492l0,-19.629l1.933,0l0,19.129l-1.933,0.5Z" style="fill:#d4d4d4;fill-rule:nonzero;"/><path d="M1255.812,1135.517l-0.65,-2.496l7.733,-2l1.937,-0.5l20.312,-5.254l1.933,-0.5l7.083,-1.829l0.65,2.504l-7.733,1.996l-1.933,0.5l-20.312,5.25l-1.937,0.5l-7.083,1.829Z" style="fill:#d4d4d4;fill-rule:nonzero;"/><path d="M1255.812,1159.008l-0.65,-2.5l7.733,-2l1.937,-0.5l20.312,-5.25l1.933,-0.5l7.083,-1.829l0.65,2.496l-7.733,2l-1.933,0.5l-20.312,5.25l-1.937,0.504l-7.083,1.829Z" style="fill:#d4d4d4;fill-rule:nonzero;"/><path d="M1034.671,1214.671l-3.063,-1.108l38.342,-106.042l3.063,1.108l-22.579,62.45c3.258,-2.329 9.562,-5.829 18.033,-5.829c0.738,0 1.492,0.025 2.267,0.083c2.258,0.312 4.563,0.937 6.796,2.217c1.112,0.637 2.183,1.45 3.146,2.475c0.508,0.525 0.879,0.983 1.404,1.729c0.146,0.204 0.863,1.412 1.079,2.058c1.271,3.075 1.021,6.563 0.163,9.263c-0.888,2.758 -2.262,5.037 -3.858,7.054c-1.625,1.992 -3.488,3.704 -5.821,5.088c-2.317,1.279 -4.425,1.904 -6.367,2.517c-3.95,1.137 -7.737,2.054 -11.471,3.254c-6.779,2.042 -13.35,4.838 -19.488,9.138l-1.646,4.546Zm26.158,-43.721c-2.908,0 -6.504,0.479 -10.942,1.642l-12.229,33.821c11.242,-13.504 34.554,-13.542 34.904,-27.087c-0.079,-3.204 -2.187,-8.375 -11.733,-8.375Z" style="fill:#d4d4d4;fill-rule:nonzero;"/><path d="M1102.104,446.192l-2.808,-0.004l0.063,-25.467l-20.904,10.496l-0.183,-50.908l2.808,-0.004l0.087,25.596l21.037,-10.567l-0.1,50.858Zm-2.713,-46.554l-18.208,9.154l0.054,18.133l18.125,-9.108l0.029,-18.179Z" style="fill:#d4d4d4;fill-rule:nonzero;"/><path d="M1850.742,677.233l-2.483,-0.004l0.05,-22.517l-18.479,9.279l-0.163,-45l2.479,-0.008l0.083,22.629l18.6,-9.346l-0.087,44.967Zm-2.4,-41.162l-16.1,8.092l0.05,16.033l16.025,-8.046l0.025,-16.079Z" style="fill:#d4d4d4;fill-rule:nonzero;"/><path d="M1780.342,109.492c-4.163,-1.942 -9.35,-5.154 -9.625,-11.846c-0.317,-7.513 3.921,-8.275 8.125,-11.308c-4.688,-0.558 -8.546,-6.746 -9.742,-11.475c-1.254,-4.958 0.629,-9.058 3.092,-13.279c3.592,-6.15 6.025,-12.421 3.342,-19.837l0,-0.504c8.429,2.021 14.958,12.404 13.733,17.621c-1.417,6.046 -5.517,9.025 -6.871,12.842c-4.008,11.354 8.938,18.475 9.554,18.767c-4.417,0.812 -9.242,0.929 -11.304,5.942c-1.867,4.529 -1.025,8.533 -0.304,13.079Z" style="fill:#d4d4d4;fill-rule:nonzero;"/><path d="M532.829,1257.921c19.167,-36.163 1.413,-38.621 1.342,-47.862l-21.492,28.483c-0.275,0.5 -0.575,0.983 -0.963,1.404c-1.167,1.358 -2.7,2.408 -4.387,3.179c-2.383,1.083 -5.083,1.575 -7.833,1.575c-1.167,0 -2.346,-0.087 -3.512,-0.258c-3.929,-0.592 -7.863,-2.212 -11.05,-4.758c-3.121,-2.471 -5.842,-6.008 -5.696,-9.696c0.179,-3.692 3.133,-6.3 6.354,-7.871c2.425,-1.196 5.238,-1.796 8.125,-1.796c1.038,0 2.083,0.075 3.121,0.233c3.937,0.592 7.896,2.108 11.167,4.629c1.625,1.263 3.083,2.742 4.142,4.45c0.75,1.167 1.242,2.475 1.404,3.767l0.029,-0.146l49.254,-65.313l1.988,1.5l-1.529,2.025c-0.308,15.738 18.308,22.942 3.429,45.679c-2.442,3.742 -28.779,35.533 -33.892,40.775Zm11.979,-61.967l-2.075,2.754c0.575,11.779 11.075,18.546 8.083,32.033c9.246,-22.762 -6.454,-25.887 -6.008,-34.787Zm10.454,-13.85l-2.25,2.983c0.346,11.304 10.283,18.296 9.062,30.496c6.804,-20.754 -6.812,-24.212 -6.812,-33.479Z" style="fill:#d4d4d4;fill-rule:nonzero;"/><path d="M379.729,327.867c-0.429,0 -0.863,-0.025 -1.296,-0.071c-3.167,-0.312 -6.292,-1.783 -8.942,-3.892c-2.642,-2.121 -4.85,-5.008 -6.113,-8.258c-1.233,-3.167 -1.725,-6.946 -0.033,-9.604c1.521,-2.338 4.279,-3.117 7.008,-3.117c0.354,0 0.708,0.012 1.058,0.038c3.129,0.221 6.317,1.562 8.975,3.679c2.642,2.125 4.917,4.95 6.25,8.217c0.65,1.625 1.096,3.346 1.142,5.058c0.05,1.125 -0.138,2.242 -0.529,3.225l0.242,-0.279l41.45,-18.762l-39.829,-49.958l-43.95,19.867c-0.55,0.425 -1.154,0.783 -1.829,0.983c-1.05,0.363 -2.171,0.525 -3.308,0.525c-0.425,0 -0.858,-0.025 -1.288,-0.067c-3.171,-0.317 -6.292,-1.788 -8.942,-3.896c-2.646,-2.125 -4.854,-5.017 -6.113,-8.254c-1.237,-3.171 -1.729,-6.946 -0.042,-9.612c1.521,-2.325 4.267,-3.113 6.992,-3.113c0.358,0 0.721,0.017 1.079,0.042c3.133,0.221 6.317,1.562 8.975,3.679c2.646,2.121 4.917,4.95 6.254,8.208c0.654,1.625 1.092,3.35 1.138,5.058c0.05,1.125 -0.138,2.246 -0.525,3.225l0.237,-0.275l52.15,-23.608l0.367,0.717l42.121,52.837l-12.046,5.45l-0.075,-0.092l-45.446,20.542c-0.55,0.425 -1.162,0.779 -1.829,0.983c-1.05,0.362 -2.167,0.525 -3.304,0.525Z" style="fill:#d4d4d4;fill-rule:nonzero;"/><path d="M1443.192,1023.896c-0.246,0 -0.492,-0.013 -0.742,-0.033c-3.946,-0.412 -6.571,-3.742 -8.075,-7.296c-1.546,-3.638 -1.867,-7.983 -1.008,-12.175c0.867,-4.2 2.738,-8.371 5.637,-11.733c1.45,-1.663 3.129,-3.154 5.025,-4.183c1.238,-0.7 2.6,-1.137 3.929,-1.254l-0.45,-0.108l-44.108,-35.233l-0.004,0.004l-13.579,-10.846l52.325,-65.512l13.587,10.85l-0.029,0.029l46.796,37.413c0.787,0.371 1.533,0.85 2.142,1.479c1.388,1.342 2.425,3.05 3.15,4.908c1.458,3.742 1.596,8.092 0.75,12.271c-0.875,4.188 -2.85,8.317 -5.771,11.6c-2.675,3.004 -6.325,5.571 -10.033,5.571c-0.246,0 -0.488,-0.013 -0.733,-0.033c-3.95,-0.413 -6.575,-3.742 -8.079,-7.3c-1.55,-3.629 -1.867,-7.979 -1.008,-12.175c0.867,-4.192 2.738,-8.362 5.638,-11.725c1.458,-1.671 3.133,-3.154 5.033,-4.188c1.237,-0.7 2.592,-1.129 3.921,-1.258l-0.446,-0.108l-43.025,-34.358l-48.958,61.283l47.871,38.283c0.796,0.367 1.529,0.85 2.15,1.479c1.388,1.342 2.421,3.046 3.146,4.904c1.454,3.746 1.588,8.092 0.746,12.271c-0.875,4.192 -2.842,8.321 -5.771,11.6c-2.671,3.004 -6.317,5.575 -10.025,5.575Z" style="fill:#d4d4d4;fill-rule:nonzero;"/><path d="M1308.388,1043.75l-4.283,-6.954l0.054,-0.054l-2.537,-4.125l-0.183,0.179l-0.938,-1.517l0.179,-0.183l-12.663,-20.6c-0.308,-0.3 -0.571,-0.646 -0.75,-1.042c-0.417,-0.846 -0.613,-1.804 -0.638,-2.779c-0.054,-1.967 0.604,-3.996 1.683,-5.788c1.1,-1.788 2.696,-3.362 4.587,-4.392c1.237,-0.675 2.667,-1.162 4.008,-1.162c0.658,0 1.292,0.117 1.875,0.392c1.75,0.846 2.408,2.813 2.521,4.7c0.104,1.937 -0.467,3.992 -1.558,5.787c-1.096,1.788 -2.646,3.404 -4.542,4.471c-0.95,0.529 -1.967,0.938 -3.012,1.096c-0.288,0.05 -0.575,0.075 -0.858,0.075c-0.4,0 -0.792,-0.05 -1.158,-0.146l0.183,0.129l11.267,18.283l27.504,-28.308l-12.137,-19.737c-0.304,-0.3 -0.567,-0.646 -0.746,-1.042c-0.417,-0.846 -0.612,-1.804 -0.642,-2.783c-0.054,-1.962 0.608,-3.996 1.692,-5.783c1.096,-1.788 2.692,-3.367 4.583,-4.392c1.237,-0.675 2.667,-1.162 4.008,-1.162c0.658,0 1.296,0.117 1.875,0.387c1.75,0.846 2.413,2.821 2.517,4.704c0.108,1.937 -0.462,3.992 -1.554,5.787c-1.092,1.788 -2.65,3.4 -4.542,4.475c-0.946,0.525 -1.967,0.933 -3.012,1.096c-0.288,0.05 -0.575,0.071 -0.858,0.071c-0.4,0 -0.792,-0.046 -1.158,-0.142l0.188,0.121l18.546,30.117l-0.408,0.279l-29.092,29.942Zm21.75,-40.3l-27.575,28.196l2.538,4.125l27.504,-28.313l-2.467,-4.008Z" style="fill:#d4d4d4;fill-rule:nonzero;"/><path d="M-406.383,726.225l-3.171,-36.038c398.167,-466.821 714.525,-358.05 1049.467,-242.892c373.529,128.417 759.775,261.217 1299.529,-389.7l3.204,2.663c-242.392,292.312 -476.512,452.025 -715.75,488.262c-211.979,32.121 -403.308,-25.333 -588.337,-88.954c-333.554,-114.675 -648.612,-197.996 -1044.942,266.658Z" style="fill:#fff;fill-rule:nonzero;"/><path d="M-308.8,1025.271l-3.475,-27.296c338.3,-511.863 665.563,-442.458 1012.042,-368.979c386.392,81.937 785.942,166.675 1242.346,-545.167l3.508,2.25c-204.958,319.671 -417.875,506.729 -650.912,571.854c-206.483,57.712 -404.404,28.233 -595.808,-12.367c-345.042,-73.167 -670.958,-129.788 -1007.7,379.704Z" style="fill:#fff;fill-rule:nonzero;"/><path d="M-168.688,1310.288l-12.067,-26.858c273.396,-549.275 606.679,-520.271 959.533,-489.563c393.496,34.242 800.396,69.65 1166.646,-692.508l3.758,1.808c-164.475,342.267 -353.008,553.875 -576.367,646.917c-197.917,82.446 -399.475,73.233 -594.4,56.262c-351.388,-30.571 -674.967,-42.792 -947.104,503.942Z" style="fill:#fff;fill-rule:nonzero;"/><path d="M-8.85,1573.046l-8.096,-30.558c204.417,-578.5 538.75,-590.321 892.717,-602.846c394.733,-13.975 802.921,-28.413 1073.554,-829.525l3.95,1.333c-121.538,359.763 -282.879,592.771 -493.233,712.338c-186.392,105.95 -388.592,117.267 -584.125,124.188c-352.496,12.467 -681.288,49.25 -884.767,625.071Z" style="fill:#fff;fill-rule:nonzero;"/><path d="M201.604,1759.758l-24.904,-0.904c132.396,-599.096 462.796,-651.579 812.596,-707.146c390.092,-61.979 793.471,-126.058 964.458,-954.179l4.087,0.846c-76.792,371.892 -208.529,622.825 -402.746,767.138c-172.092,127.871 -371.908,167.942 -565.146,198.642c-348.35,55.337 -656.554,99.275 -788.346,695.604Z" style="fill:#fff;fill-rule:nonzero;"/><rect x="1792.158" y="402.988" width="2.05" height="72.175" style="fill:#fff;fill-rule:nonzero;"/><rect x="1815.708" y="400.313" width="2.054" height="72.171" style="fill:#fff;fill-rule:nonzero;"/><path d="M1784.654,431.954l-0.683,-2.642l41.292,-10.675l0.683,2.646l-41.292,10.671Z" style="fill:#fff;fill-rule:nonzero;"/><path d="M1784.654,456.833l-0.683,-2.65l41.292,-10.675l0.683,2.65l-41.292,10.675Z" style="fill:#fff;fill-rule:nonzero;"/><path d="M1256.4,790.2l-1.054,-1.762l61.988,-36.971l1.05,1.754l-61.983,36.979Z" style="fill:#fff;fill-rule:nonzero;"/><path d="M1270.763,809.054l-1.05,-1.763l61.979,-36.971l1.054,1.763l-61.983,36.971Z" style="fill:#fff;fill-rule:nonzero;"/><path d="M1288.612,759.858l1.917,-1.942l30.325,29.996l-1.925,1.942l-30.317,-29.996Z" style="fill:#fff;fill-rule:nonzero;"/><path d="M1267.246,772.604l1.929,-1.946l30.313,29.996l-1.921,1.942l-30.321,-29.992Z" style="fill:#fff;fill-rule:nonzero;"/><path d="M392.612,575.513l-0.083,-29.258l29.379,-14.771l-0.05,29.337l-29.246,14.692Zm-0.108,-33.925l-0.15,-41.3l-4.525,0.008l0.292,82.142l33.725,-16.938l-0.087,41.092l4.525,0.008l0.167,-82.062l-33.946,17.05Z" style="fill:#fff;fill-rule:nonzero;"/><path d="M278.983,1044.637c-22.554,-25.879 -85.558,-128.012 18.987,-172.925c41.883,-18.008 86.704,-2.321 108.996,22.967c22.883,25.917 60.388,134.854 -56.242,188.321c-49.392,22.662 -135.088,18.638 -178.104,-11.729c-146.008,-103.033 -39.179,-240.875 -26.512,-260.496c46.912,-72.6 247.187,-218.521 146.225,-483.9c-9.2,-24.167 -24.788,-49.779 -49.738,-62.492c-44.271,-22.554 -80.758,12.379 -100.387,45.971c-24.196,41.404 -23.013,123.396 -12.758,167.346c35.383,151.65 116.229,296.625 120.208,306.675c6.846,17.237 80.375,169.533 85.971,180.054c89.2,167.433 100.662,231.004 101.571,289.671c1.058,68.579 -91.538,134.288 -150.6,78.704c17.158,-1.05 57,-27.629 46.196,-68.008c-14.017,-52.288 -66.567,-54.592 -102.225,-30.942c-33.883,22.462 -34.658,72.125 -3.975,106.283c34.867,38.808 126.271,50.333 183.437,12.354c126.033,-83.75 -35.871,-360.354 -61.571,-408.767c-28.804,-54.254 -186.737,-357.617 -194.929,-490.517c-4.125,-66.912 38.083,-138.8 80.425,-114.204c45.829,26.612 48.058,91.225 46.262,114.325c-5.8,74.346 -49.342,139.637 -98.387,197.071c-47.604,55.754 -103.021,124.013 -128.304,191.625c-27.629,73.892 -2.4,182.879 64.517,234.263c22.813,17.512 78.625,52.504 154.238,49.317c113.133,-4.804 259.458,-79.112 222.258,-227.629c-32.717,-130.625 -206.45,-136.771 -278.513,-59.304c-16.367,17.596 -29.321,40.196 -34.4,63.875c-13.504,62.95 28.917,136.688 97.354,142.092Z" style="fill:#fff;fill-rule:nonzero;"/><path d="M724.2,1109.212c1.725,6.958 2.929,14.213 2.529,21.667c-0.225,3.708 -0.971,7.45 -2.542,10.758c-1.592,3.288 -4.1,6.029 -7.204,7.221c-3.079,1.192 -6.496,0.775 -9.333,-0.904c-0.9,-0.5 -1.729,-1.133 -2.537,-1.821l13.462,-52.1c2.458,4.717 4.271,9.875 5.625,15.179Zm-23.654,31.529c-3.696,-6.017 -5.912,-12.9 -7.7,-19.808c-1.725,-6.954 -2.696,-14.238 -2.175,-21.546c0.433,-7.171 3.129,-14.967 9.283,-18.096c6.208,-1.846 11.767,2.379 15.467,7.542l-13.804,53.433c-0.371,-0.5 -0.738,-1.004 -1.071,-1.525Zm23.408,-84.95l-6.775,26.246c-2.05,-1.454 -4.233,-2.654 -6.567,-3.417c-0.433,-0.163 -0.879,-0.217 -1.313,-0.329l0.175,-0.033l-149.35,-38.583l-1.321,5.108l137.45,35.508c-2.479,1.379 -4.717,3.471 -6.454,5.967c-2.508,3.496 -4.254,7.621 -5.412,11.875c-2.3,8.554 -2.054,17.675 0.012,25.954c2.083,8.292 6.421,15.821 12.354,21.021c1.079,0.958 2.242,1.838 3.438,2.662l-5.017,19.421l4.217,1.088l4.704,-18.208c4.25,2.025 8.9,2.813 13.492,1.171c7.438,-2.758 12.204,-11.058 14.546,-19.283c2.425,-8.417 2.412,-17.558 0.346,-25.833c-2.05,-8.075 -5.962,-15.575 -11.604,-21.008l7.296,-28.237l-4.217,-1.088Z" style="fill:#fff;fill-rule:nonzero;"/><path d="M1648.025,432.713c-0.192,0.537 -0.333,1.092 -0.429,1.679l-0.583,-1.179l1.013,-0.5Zm11.4,-3.075c3.546,1.025 6.925,2.867 10.071,5.067c3.129,2.225 6.154,4.758 8.6,7.925c1.2,1.592 2.204,3.367 2.721,5.267c0.504,1.883 0.446,3.879 -0.408,5.446c-0.829,1.567 -2.371,2.588 -4.104,2.896c-1.733,0.358 -3.617,0.092 -5.404,-0.454c-3.613,-1.15 -6.917,-3.171 -10.058,-5.358c-3.125,-2.229 -6.071,-4.846 -8.412,-8c-2.325,-3.067 -3.95,-7.183 -2.542,-10.6c1.992,-3.096 6.087,-3.167 9.538,-2.187Zm-20.996,-8.596l5.238,10.658l-65.163,32.058l1.246,2.538l65.167,-32.058l3.267,6.654c0.337,1.096 0.763,2.171 1.258,3.225c0.575,1.187 1.263,2.325 2.008,3.408l14.196,28.854l2.096,-1.029l-10.792,-21.938c0.521,0.421 1.021,0.867 1.562,1.25c3.742,2.638 8.133,4.188 12.367,4.225c4.129,0.054 8.508,-1.104 10.613,-4.787c2.058,-3.717 1.096,-8.758 -0.825,-12.921c-1.954,-4.271 -5.154,-7.975 -8.883,-10.625c-3.733,-2.613 -8.058,-4.346 -12.346,-4.521c-2.133,-0.087 -4.246,0.196 -6.154,0.987l-0.646,0.317l0.058,-0.071l-6.929,3.408l-5.242,-10.662l-2.096,1.029Z" style="fill:#fff;fill-rule:nonzero;"/><path d="M511.85,529.638l-0.129,5.279l141.917,3.496c-2.104,1.9 -3.813,4.446 -4.929,7.267c-1.658,3.979 -2.421,8.392 -2.592,12.8c-0.304,8.85 1.996,17.675 5.883,25.271c3.9,7.608 9.829,13.958 16.783,17.683c6.783,3.654 15.021,5.542 21.683,1.258c6.621,-4.367 9.383,-13.533 9.812,-22.071c0.454,-8.746 -1.638,-17.646 -5.512,-25.246c-3.908,-7.563 -9.554,-14.158 -16.496,-18.15c-3.446,-1.983 -7.188,-3.346 -11.021,-3.7c-0.45,-0.05 -0.896,-0.004 -1.35,-0.017l0.163,-0.067l-154.212,-3.804Z" style="fill:#fff;fill-rule:nonzero;"/><path d="M1109.508,594.421l2.054,-3.146l-84.429,-55.146c1.979,-0.362 3.963,-1.258 5.688,-2.546c2.5,-1.787 4.604,-4.167 6.354,-6.767c3.488,-5.229 5.396,-11.421 5.888,-17.458c0.488,-6.058 -0.717,-12.113 -3.533,-16.963c-2.725,-4.742 -7,-8.958 -12.629,-8.862c-5.625,0.163 -10.725,4.671 -14.175,9.671c-3.537,5.113 -5.608,11.271 -6.104,17.308c-0.467,6.033 0.483,12.125 3.187,17.129c1.333,2.487 3.087,4.713 5.271,6.358l0.808,0.517l-0.121,-0.025l91.742,59.929Z" style="fill:#fff;fill-rule:nonzero;"/><path d="M859.621,990.983l-1.592,-3.4l-85.496,40.179c0.646,-1.842 0.858,-3.967 0.633,-6.087c-0.279,-3.033 -1.221,-6.067 -2.517,-8.912c-2.625,-5.721 -6.792,-10.646 -11.508,-14.308c-4.729,-3.675 -10.267,-5.946 -15.583,-6.225c-5.192,-0.312 -10.687,0.958 -13.292,5.675c-2.554,4.754 -1.288,11.404 1.158,16.967c2.504,5.688 6.567,10.729 11.279,14.396c4.725,3.65 10.167,6.15 15.558,6.604c2.675,0.238 5.342,-0.012 7.725,-0.929l0.812,-0.392l-0.075,0.087l92.896,-43.654Z" style="fill:#fff;fill-rule:nonzero;"/><path d="M1933.333,169.733l-1.179,-2.512l-63.154,29.679c0.475,-1.358 0.629,-2.929 0.462,-4.496c-0.204,-2.242 -0.9,-4.479 -1.854,-6.583c-1.938,-4.225 -5.021,-7.862 -8.504,-10.567c-3.492,-2.717 -7.583,-4.396 -11.513,-4.6c-3.837,-0.229 -7.896,0.708 -9.821,4.192c-1.888,3.512 -0.946,8.425 0.858,12.533c1.85,4.2 4.85,7.925 8.329,10.633c3.492,2.696 7.517,4.542 11.496,4.879c1.979,0.175 3.946,-0.008 5.708,-0.688l0.6,-0.288l-0.058,0.063l68.629,-32.246Z" style="fill:#fff;fill-rule:nonzero;"/><path d="M1546.546,330.713l-2.946,0.875l23.579,79.242c-1.429,-0.825 -3.146,-1.313 -4.908,-1.425c-2.504,-0.2 -5.088,0.167 -7.558,0.867c-4.954,1.421 -9.429,4.283 -12.942,7.804c-3.512,3.533 -5.962,7.954 -6.771,12.475c-0.813,4.417 -0.371,9.321 3.2,12.238c3.604,2.879 9.187,2.767 13.996,1.462c4.917,-1.321 9.479,-4.075 12.983,-7.592c3.488,-3.525 6.129,-7.838 7.092,-12.4c0.475,-2.262 0.558,-4.583 0.067,-6.771l-0.233,-0.75l0.063,0.079l-25.621,-86.104Z" style="fill:#fff;fill-rule:nonzero;"/><path d="M1557.867,730.508l-3.021,-0.592l-15.633,79.796c-0.879,-1.375 -2.175,-2.587 -3.688,-3.496c-2.129,-1.325 -4.592,-2.196 -7.104,-2.725c-5.05,-1.029 -10.338,-0.6 -15.071,0.85c-4.75,1.462 -8.958,4.187 -11.754,7.742c-2.762,3.471 -4.629,7.946 -2.812,12.125c1.871,4.167 6.871,6.625 11.733,7.704c4.975,1.108 10.288,0.804 15.013,-0.642c4.725,-1.467 9.054,-4 12.012,-7.533c1.458,-1.75 2.612,-3.729 3.179,-5.863l0.137,-0.762l0.021,0.104l16.987,-86.708Z" style="fill:#fff;fill-rule:nonzero;"/><path d="M1759.504,388.333l-3.046,-0.442l-11.517,80.496c-0.946,-1.329 -2.308,-2.471 -3.858,-3.3c-2.2,-1.217 -4.704,-1.958 -7.233,-2.354c-5.1,-0.771 -10.358,-0.071 -15.012,1.621c-4.667,1.704 -8.729,4.642 -11.338,8.338c-2.583,3.604 -4.212,8.167 -2.187,12.25c2.083,4.063 7.204,6.267 12.113,7.092c5.029,0.85 10.313,0.275 14.958,-1.413c4.646,-1.704 8.842,-4.458 11.612,-8.138c1.367,-1.825 2.417,-3.863 2.875,-6.017l0.096,-0.771l0.025,0.1l12.512,-87.462Z" style="fill:#fff;fill-rule:nonzero;"/><path d="M1435.879,842.475c-0.863,5.35 -2.867,10.383 -5.408,15.067c-2.579,4.646 -5.588,9.121 -9.567,12.683c-1.992,1.758 -4.287,3.2 -6.817,3.9c-2.517,0.683 -5.275,0.496 -7.558,-0.871c-2.279,-1.342 -3.925,-3.717 -4.617,-6.379c-0.763,-2.646 -0.675,-5.488 -0.221,-8.187c1.029,-5.421 3.304,-10.342 5.825,-15.008c2.567,-4.654 5.721,-8.987 9.692,-12.408c3.858,-3.396 9.258,-5.671 14.187,-3.379c4.575,3.175 5.312,9.392 4.483,14.583Zm-59.462,-124.433l-3.296,1.783l56.767,105.213c-2.042,-0.863 -4.317,-1.213 -6.521,-1.025c-3.133,0.196 -6.163,1.196 -8.937,2.646c-5.579,2.921 -10.038,7.738 -13.1,13.288c-3.05,5.558 -4.504,12.158 -3.904,18.579c0.571,6.267 2.829,12.971 8.225,16.333c5.433,3.296 12.217,2.067 17.65,-0.65c5.558,-2.783 10.171,-7.471 13.242,-13.017c3.004,-5.55 4.729,-12.025 4.3,-18.525c-0.212,-3.233 -0.933,-6.463 -2.308,-9.396l-0.542,-0.992l0.108,0.096l-61.683,-114.333Z" style="fill:#fff;fill-rule:nonzero;"/><path d="M919.375,735.858c-2.525,4.792 -6.029,8.925 -9.925,12.55c-3.929,3.588 -8.208,6.867 -13.117,8.979c-2.45,1.029 -5.083,1.663 -7.704,1.525c-2.6,-0.154 -5.158,-1.213 -6.883,-3.242c-1.738,-1.996 -2.538,-4.775 -2.342,-7.512c0.117,-2.75 1.104,-5.421 2.4,-7.833c2.704,-4.812 6.429,-8.754 10.3,-12.367c3.917,-3.592 8.292,-6.7 13.146,-8.671c4.738,-1.996 10.579,-2.429 14.525,1.317c3.321,4.471 2.037,10.596 -0.4,15.254Zm-16.692,-136.9l-3.696,0.642l20.267,117.817c-1.658,-1.467 -3.708,-2.525 -5.85,-3.05c-3.037,-0.812 -6.225,-0.833 -9.321,-0.342c-6.217,0.992 -11.979,4.133 -16.65,8.421c-4.662,4.296 -8.146,10.088 -9.625,16.363c-1.458,6.121 -1.45,13.196 2.592,18.108c4.1,4.854 10.921,5.85 16.933,5.004c6.154,-0.867 12.025,-3.837 16.7,-8.108c4.621,-4.3 8.321,-9.896 9.983,-16.196c0.829,-3.129 1.175,-6.421 0.804,-9.638c-0.029,-0.379 -0.125,-0.738 -0.196,-1.112l0.071,0.129l-22.013,-128.038Z" style="fill:#fff;fill-rule:nonzero;"/><path d="M1695.579,277.496c2.925,-2.629 6.342,-4.563 9.9,-6.054c3.567,-1.446 7.304,-2.608 11.162,-2.812c1.921,-0.087 3.871,0.137 5.617,0.892c1.733,0.758 3.2,2.112 3.875,3.921c0.675,1.796 0.525,3.883 -0.292,5.7c-0.767,1.838 -2.112,3.408 -3.592,4.721c-3.042,2.592 -6.562,4.337 -10.1,5.829c-3.562,1.463 -7.317,2.479 -11.104,2.604c-3.725,0.163 -7.804,-1 -9.546,-4.533c-1.146,-3.867 1.271,-7.717 4.079,-10.267Zm-22.912,97.238l2.667,0.492l15.721,-85.171c0.758,1.417 1.888,2.65 3.212,3.546c1.858,1.308 4.029,2.117 6.25,2.563c4.475,0.879 9.179,0.187 13.421,-1.554c4.254,-1.75 8.071,-4.821 10.642,-8.717c2.521,-3.792 4.3,-8.608 2.779,-12.954c-1.575,-4.325 -5.958,-6.712 -10.263,-7.642c-4.396,-0.954 -9.129,-0.408 -13.379,1.329c-4.217,1.771 -8.133,4.646 -10.842,8.517c-1.35,1.913 -2.404,4.067 -2.962,6.346l-0.142,0.8l-0.021,-0.096l-17.083,92.542Z" style="fill:#fff;fill-rule:nonzero;"/><path d="M1058.279,738.537l1.042,-6.087c6.608,14.542 34.175,6.642 38.129,50.483c-6.317,-23.942 -28.596,-26.104 -39.171,-44.396Zm44.654,11c-8.062,-20.433 -29.638,-23.413 -39.463,-41.129l1.133,-6.604c7.6,14.767 32.137,9.092 38.329,47.733Zm8.692,-1.321c5.021,-48.446 -30.546,-44.638 -42.958,-69.946l0.767,-4.479l-4.408,-0.763l-24.825,144.479l0.071,0.246c-1.312,-1.917 -3.175,-3.592 -5.325,-4.837c-3.087,-1.854 -6.637,-3.013 -10.25,-3.688c-7.275,-1.333 -14.842,-0.496 -21.587,1.792c-6.754,2.304 -12.725,6.421 -16.642,11.721c-3.838,5.146 -6.392,11.725 -3.662,17.75c2.813,5.992 10.033,9.396 17.038,10.775c7.179,1.438 14.771,0.792 21.517,-1.496c6.712,-2.308 12.85,-6.171 16.987,-11.417c2.054,-2.612 3.633,-5.533 4.383,-8.658c0.271,-0.996 0.354,-2.008 0.362,-3.033l10.858,-63.013c7.704,14.658 37.992,4 37.163,77.346c3.837,-12.558 19.688,-84.817 20.513,-92.779Z" style="fill:#fff;fill-rule:nonzero;"/><path d="M820.446,771.146l3.279,-3.917l-4.008,-3.362l-90.387,107.887c-0.171,-2.804 -1.092,-5.7 -2.588,-8.312c-2.062,-3.742 -5.008,-7.054 -8.321,-9.912c-6.679,-5.704 -14.946,-9.367 -23.233,-11.05c-8.308,-1.679 -16.896,-1.008 -24.088,2.092c-7.021,3 -13.567,8.225 -14.367,16.037c-0.7,7.825 4.696,15.637 11.058,21.238c6.5,5.754 14.696,9.633 22.975,11.325c8.283,1.638 16.888,1.333 24.271,-1.583c3.663,-1.442 7.029,-3.5 9.675,-6.263l0.846,-1.037l-0.05,0.175l75.158,-89.704c-6.604,26.633 42.5,37.121 -0.15,93.937c73.704,-80.35 15.533,-58.975 19.929,-117.55Z" style="fill:#fff;fill-rule:nonzero;"/><path d="M1212.337,836.342l-0.962,-5.025l-5.138,0.979l26.429,138.242c-2.279,-1.642 -5.108,-2.758 -8.079,-3.254c-4.196,-0.767 -8.629,-0.575 -12.942,0.179c-8.633,1.571 -16.704,5.658 -23.246,11.017c-6.55,5.371 -11.463,12.45 -13.608,19.983c-2.121,7.338 -2.208,15.708 3.337,21.271c5.621,5.492 15.083,6.246 23.446,4.858c8.571,-1.396 16.754,-5.292 23.304,-10.633c6.5,-5.383 11.704,-12.246 14.117,-19.804c1.196,-3.754 1.733,-7.667 1.267,-11.454c-0.042,-0.454 -0.179,-0.867 -0.262,-1.317l0.096,0.146l-21.971,-114.946c16.458,21.958 55.633,-9.45 72.683,59.517c-15.65,-107.904 -35.871,-49.321 -78.471,-89.758Z" style="fill:#fff;fill-rule:nonzero;"/><path d="M548.104,311.792l3.15,-13.187c2.504,18.129 25.579,11.204 26.2,54.6c-6.146,-19.317 -23.558,-21.875 -29.35,-41.413Zm9.738,-40.704l2.037,-8.5l-4.104,-0.742l-39.412,164.913c-0.933,-2.096 -2.321,-3.95 -4.021,-5.342c-2.517,-2.154 -5.537,-3.533 -8.675,-4.329c-6.308,-1.604 -13.137,-0.725 -19.417,1.821c-6.279,2.563 -12.079,7.225 -16.2,13.238c-4.033,5.871 -7.104,13.375 -5.392,20.304c1.758,6.892 7.792,10.854 13.842,12.525c6.212,1.717 13.05,1.063 19.325,-1.483c6.25,-2.579 12.171,-6.938 16.479,-12.904c2.146,-2.962 3.9,-6.296 4.946,-9.871c0.213,-0.658 0.342,-1.35 0.463,-2.025l0.012,0.042l24.429,-102.083c1.321,27.013 32.321,25.575 26.196,77.771l21.579,-90.288c-0.687,-27.829 -24.721,-26.304 -32.087,-53.046Z" style="fill:#fff;fill-rule:nonzero;"/><path d="M1424.858,417.175l-0.308,-6.625c3.638,8.183 13.537,1.796 19.712,22.104c-5.504,-8.238 -14.037,-7.079 -19.404,-15.479Zm-0.95,-20.45l-0.196,-4.271l-2.029,0.212l3.854,82.85c-0.729,-0.863 -1.633,-1.546 -2.617,-1.967c-1.479,-0.671 -3.079,-0.908 -4.663,-0.863c-3.183,0.108 -6.275,1.446 -8.879,3.492c-2.604,2.058 -4.7,5.038 -5.821,8.421c-1.096,3.308 -1.521,7.25 0.217,10.275c1.767,3 5.142,4.046 8.213,4.004c3.15,-0.033 6.275,-1.271 8.875,-3.312c2.592,-2.062 4.779,-4.913 5.996,-8.304c0.608,-1.679 0.983,-3.488 0.987,-5.308l-0.058,-1.017l0.008,0.021l-2.367,-51.287c4.287,12.512 18.663,7.633 22.862,32.996l-2.104,-45.362c-4.1,-12.988 -15.187,-9.008 -22.279,-20.579Z" style="fill:#fff;fill-rule:nonzero;"/><path d="M1227.679,641.033l-0.313,-6.625c3.638,8.183 13.537,1.796 19.717,22.108c-5.508,-8.246 -14.037,-7.083 -19.404,-15.483Zm-0.95,-20.446l-0.196,-4.275l-2.029,0.213l3.854,82.846c-0.729,-0.858 -1.633,-1.542 -2.617,-1.962c-1.479,-0.675 -3.079,-0.908 -4.663,-0.863c-3.183,0.108 -6.275,1.442 -8.879,3.492c-2.604,2.058 -4.7,5.037 -5.821,8.425c-1.096,3.304 -1.521,7.25 0.217,10.271c1.767,3.004 5.138,4.046 8.212,4.004c3.15,-0.033 6.275,-1.271 8.875,-3.312c2.592,-2.058 4.779,-4.917 5.996,-8.3c0.608,-1.683 0.979,-3.496 0.983,-5.312l-0.054,-1.013l0.008,0.017l-2.367,-51.288c4.287,12.508 18.663,7.633 22.862,32.992l-2.104,-45.362c-4.104,-12.983 -15.187,-9.008 -22.279,-20.571Z" style="fill:#fff;fill-rule:nonzero;"/><path d="M1824.225,264.771l-1.025,-6.554c4.496,7.742 13.654,0.325 21.988,19.846c-6.367,-7.596 -14.725,-5.525 -20.963,-13.292Zm-3.15,-20.229l-0.658,-4.225l-1.996,0.429l12.775,81.95c-0.817,-0.779 -1.787,-1.358 -2.817,-1.671c-1.542,-0.508 -3.158,-0.571 -4.725,-0.354c-3.15,0.45 -6.079,2.112 -8.45,4.429c-2.367,2.325 -4.129,5.517 -4.879,9c-0.729,3.404 -0.729,7.375 1.325,10.188c2.079,2.796 5.546,3.467 8.592,3.1c3.133,-0.375 6.104,-1.942 8.471,-4.254c2.354,-2.329 4.221,-5.4 5.062,-8.904c0.425,-1.733 0.6,-3.571 0.408,-5.383l-0.167,-1.004l0.008,0.017l-7.883,-50.729c5.608,11.975 19.375,5.575 26.288,30.333l-6.988,-44.871c-5.479,-12.467 -16.067,-7.313 -24.367,-18.05Z" style="fill:#fff;fill-rule:nonzero;"/><path d="M1634.858,699l0.721,6.592c-4.138,-7.942 -13.621,-0.946 -21.054,-20.825c6.012,7.875 14.45,6.192 20.333,14.233Zm2.225,20.35l0.462,4.246l2.008,-0.333l-9.017,-82.446c0.787,0.817 1.725,1.442 2.737,1.796c1.521,0.579 3.129,0.717 4.708,0.571c3.167,-0.304 6.171,-1.829 8.642,-4.037c2.471,-2.217 4.379,-5.321 5.283,-8.767c0.892,-3.375 1.071,-7.333 -0.854,-10.242c-1.95,-2.883 -5.379,-3.717 -8.442,-3.483c-3.15,0.229 -6.187,1.658 -8.658,3.863c-2.454,2.217 -4.462,5.2 -5.467,8.658c-0.5,1.717 -0.763,3.542 -0.65,5.358l0.121,1.013l-0.012,-0.017l5.558,51.038c-5.054,-12.221 -19.096,-6.454 -24.867,-31.504l4.929,45.142c4.9,12.704 15.712,8.046 23.517,19.146Z" style="fill:#fff;fill-rule:nonzero;"/><path d="M916.4,1014.271l-0.033,73.663l-0.179,0.042l0,19.533l96.767,-24.496l1.183,-0.058l-0.013,-84.554l-0.229,-0.488c1.092,1.125 2.479,2.05 4.025,2.671c2.329,0.983 4.913,1.429 7.504,1.546c5.2,0.187 10.392,-1.15 14.863,-3.421c4.467,-2.275 8.208,-5.746 10.417,-9.829c2.15,-3.971 3.271,-8.812 0.771,-12.729c-2.554,-3.896 -7.937,-5.542 -12.95,-5.8c-5.138,-0.279 -10.362,0.925 -14.833,3.196c-4.454,2.279 -8.333,5.592 -10.692,9.663c-1.171,2.017 -1.979,4.213 -2.187,6.462c-0.133,1.033 -0.029,2.067 0.212,3.058l-0.029,71.246l-91.492,23.162l-0.008,-67.204l-0.225,-0.487c1.083,1.121 2.475,2.05 4.025,2.671c2.321,0.983 4.913,1.438 7.504,1.546c5.196,0.196 10.387,-1.15 14.854,-3.413c4.471,-2.287 8.212,-5.754 10.417,-9.829c2.154,-3.979 3.275,-8.813 0.771,-12.738c-2.55,-3.896 -7.933,-5.533 -12.946,-5.8c-5.142,-0.279 -10.367,0.933 -14.833,3.196c-4.45,2.287 -8.333,5.592 -10.692,9.663c-1.171,2.025 -1.975,4.213 -2.183,6.467c-0.129,1.025 -0.033,2.062 0.213,3.063Z" style="fill:#fff;fill-rule:nonzero;"/><path d="M1785.483,634.183l-24.804,-55.242l0.113,-0.092l-6.579,-14.646l-64.296,50.987l-0.863,0.442l28.513,63.387l0.333,0.292c-1.196,-0.479 -2.546,-0.704 -3.917,-0.646c-2.079,0.05 -4.171,0.583 -6.15,1.371c-3.954,1.617 -7.404,4.362 -9.988,7.575c-2.583,3.208 -4.217,7.075 -4.496,10.879c-0.275,3.7 0.517,7.712 3.713,9.8c3.229,2.058 7.817,1.483 11.667,-0.013c3.946,-1.525 7.458,-4.188 10.042,-7.4c2.571,-3.212 4.362,-7 4.758,-10.846c0.196,-1.908 0.058,-3.825 -0.537,-5.579c-0.25,-0.821 -0.679,-1.558 -1.196,-2.225l-23.992,-53.425l60.783,-48.208l22.662,50.383l0.333,0.288c-1.187,-0.475 -2.546,-0.7 -3.917,-0.637c-2.071,0.038 -4.171,0.575 -6.146,1.367c-3.963,1.604 -7.404,4.362 -9.988,7.563c-2.588,3.225 -4.221,7.083 -4.5,10.883c-0.271,3.708 0.521,7.708 3.721,9.808c3.217,2.067 7.812,1.471 11.658,-0.017c3.95,-1.529 7.458,-4.192 10.046,-7.396c2.558,-3.212 4.362,-7 4.758,-10.846c0.192,-1.912 0.062,-3.829 -0.546,-5.588c-0.25,-0.812 -0.667,-1.554 -1.188,-2.221Z" style="fill:#fff;fill-rule:nonzero;"/><path d="M480.154,685.983c22.417,-2.008 47.054,18.137 48.354,31.979c1.512,16.042 -6.113,26.762 -6.275,37.262c-0.479,31.258 37.254,38.054 39.025,38.271c-10.204,5.646 -21.979,9.921 -22.904,23.946c-0.842,12.7 4.542,21.837 10.088,32.442c-11.858,-1.325 -27.271,-4.954 -33.488,-21.183c-7,-18.225 2.804,-23.6 10.638,-34.538c-11.987,2.508 -26.613,-9.525 -33.458,-20.167c-7.175,-11.158 -5.933,-22.796 -3.362,-35.217c3.75,-18.1 4.546,-35.546 -8.204,-51.567l-0.412,-1.229Z" style="fill:#fff;fill-rule:nonzero;"/><path d="M792.442,593.525l0.075,-0.029l3.121,-1.125l181.562,-65.413l0,-0.008l0.1,-0.033l-31,-86.008c1.638,0.821 3.562,1.254 5.517,1.263c2.775,0.071 5.6,-0.5 8.287,-1.425c5.383,-1.879 10.146,-5.321 13.8,-9.421c3.658,-4.121 6.087,-9.158 6.7,-14.204c0.613,-4.925 -0.175,-10.304 -4.3,-13.308c-4.163,-2.954 -10.313,-2.479 -15.533,-0.746c-5.358,1.771 -10.217,5.1 -13.871,9.196c-3.629,4.112 -6.275,9.038 -7.05,14.138c-0.392,2.529 -0.333,5.096 0.354,7.479l0.304,0.812l-0.083,-0.079l27.15,75.358l-87.633,31.575l-24.471,-67.908c1.637,0.821 3.562,1.25 5.517,1.263c2.779,0.067 5.6,-0.5 8.292,-1.433c5.383,-1.875 10.142,-5.312 13.796,-9.417c3.654,-4.117 6.092,-9.163 6.7,-14.2c0.617,-4.925 -0.175,-10.308 -4.296,-13.312c-4.167,-2.954 -10.313,-2.479 -15.542,-0.742c-5.358,1.767 -10.217,5.096 -13.867,9.192c-3.638,4.117 -6.275,9.046 -7.054,14.142c-0.388,2.525 -0.333,5.092 0.358,7.475l0.3,0.813l-0.079,-0.079l27.15,75.362l-87.629,31.571l-24.467,-67.913c1.633,0.821 3.554,1.254 5.504,1.267c2.779,0.071 5.608,-0.5 8.296,-1.425c5.379,-1.879 10.146,-5.325 13.8,-9.425c3.65,-4.117 6.083,-9.158 6.692,-14.2c0.617,-4.921 -0.167,-10.308 -4.296,-13.308c-4.162,-2.954 -10.308,-2.475 -15.538,-0.742c-5.358,1.767 -10.208,5.092 -13.871,9.192c-3.629,4.108 -6.271,9.038 -7.05,14.138c-0.383,2.525 -0.325,5.092 0.354,7.479l0.304,0.813l-0.079,-0.083l33.675,93.462Z" style="fill:#fff;fill-rule:nonzero;"/><path d="M1481.567,581.067l-3.708,-9.25l72.329,-28.975l3.708,9.246l-72.329,28.979Zm-74.967,30.033l-3.708,-9.25l72.333,-28.975l3.7,9.25l-72.325,28.975Zm140.242,-84.258l-0.067,0.029l-2.579,1.029l-149.842,60.037l-0.079,0.033l28.437,70.983c-1.392,-0.637 -3.012,-0.942 -4.646,-0.892c-2.321,0.025 -4.662,0.579 -6.879,1.438c-4.446,1.729 -8.329,4.746 -11.258,8.283c-2.942,3.546 -4.821,7.833 -5.187,12.071c-0.371,4.129 0.454,8.604 3.988,10.996c3.567,2.35 8.692,1.771 13.008,0.163c4.425,-1.638 8.383,-4.563 11.321,-8.096c2.917,-3.537 4.979,-7.742 5.488,-12.025c0.242,-2.129 0.121,-4.267 -0.517,-6.238l-0.283,-0.675l0.075,0.067l-19.85,-49.521l72.329,-28.971l17.379,43.367c-1.392,-0.637 -3.017,-0.942 -4.65,-0.896c-2.321,0.021 -4.658,0.588 -6.875,1.442c-4.454,1.729 -8.325,4.742 -11.258,8.279c-2.942,3.55 -4.829,7.833 -5.192,12.071c-0.363,4.133 0.454,8.613 3.983,11c3.575,2.346 8.696,1.767 13.021,0.163c4.412,-1.637 8.379,-4.563 11.317,-8.096c2.917,-3.542 4.979,-7.737 5.483,-12.021c0.242,-2.133 0.117,-4.271 -0.517,-6.242l-0.279,-0.675l0.071,0.067l-19.846,-49.521l72.329,-28.975l17.375,43.371c-1.387,-0.637 -3.012,-0.946 -4.65,-0.892c-2.317,0.021 -4.662,0.579 -6.875,1.433c-4.446,1.733 -8.325,4.746 -11.263,8.287c-2.937,3.546 -4.817,7.829 -5.179,12.071c-0.375,4.129 0.442,8.604 3.983,10.996c3.567,2.346 8.687,1.763 13.008,0.163c4.421,-1.638 8.388,-4.567 11.325,-8.096c2.913,-3.542 4.975,-7.737 5.479,-12.025c0.25,-2.125 0.121,-4.267 -0.517,-6.242l-0.275,-0.671l0.062,0.067l-30.9,-77.138Z" style="fill:#fff;fill-rule:nonzero;"/><path d="M1228.837,548.392l0.667,-6.863l53.65,5.258l-0.671,6.858l-53.646,-5.254Zm-55.612,-5.45l0.671,-6.863l53.654,5.258l-0.675,6.863l-53.65,-5.258Zm112.975,-7.046l-0.05,-0.004l-1.908,-0.188l-111.154,-10.892l-0.058,-0.004l-5.158,52.654c-0.65,-0.838 -1.55,-1.538 -2.571,-2.029c-1.433,-0.725 -3.05,-1.129 -4.683,-1.313c-3.279,-0.354 -6.625,0.262 -9.55,1.5c-2.938,1.242 -5.458,3.275 -7.033,5.758c-1.546,2.417 -2.467,5.429 -1.058,8.025c1.442,2.579 4.775,3.858 7.942,4.246c3.233,0.404 6.6,-0.129 9.525,-1.367c2.921,-1.242 5.525,-3.162 7.2,-5.633c0.833,-1.229 1.438,-2.583 1.675,-3.996l0.042,-0.504l0.021,0.067l3.6,-36.737l53.65,5.263l-3.154,32.171c-0.65,-0.838 -1.55,-1.542 -2.567,-2.033c-1.438,-0.729 -3.05,-1.125 -4.683,-1.304c-3.288,-0.363 -6.621,0.258 -9.55,1.492c-2.942,1.246 -5.467,3.275 -7.037,5.763c-1.537,2.421 -2.467,5.433 -1.058,8.021c1.45,2.583 4.779,3.858 7.937,4.25c3.238,0.4 6.604,-0.129 9.533,-1.362c2.921,-1.246 5.525,-3.171 7.2,-5.633c0.829,-1.233 1.433,-2.588 1.667,-4l0.05,-0.504l0.021,0.067l3.596,-36.738l53.65,5.263l-3.154,32.167c-0.646,-0.833 -1.55,-1.537 -2.567,-2.029c-1.433,-0.725 -3.05,-1.129 -4.683,-1.308c-3.283,-0.354 -6.625,0.263 -9.558,1.496c-2.933,1.246 -5.45,3.275 -7.021,5.762c-1.55,2.417 -2.475,5.425 -1.063,8.025c1.446,2.575 4.771,3.85 7.937,4.242c3.233,0.408 6.604,-0.125 9.529,-1.362c2.921,-1.242 5.521,-3.163 7.2,-5.633c0.829,-1.229 1.438,-2.583 1.671,-4l0.046,-0.5l0.021,0.062l5.608,-57.217Z" style="fill:#fff;fill-rule:nonzero;"/></g></svg>